<mxfile host="app.diagrams.net" agent="Mozilla/5.0 (X11; Linux x86_64; rv:137.0) Gecko/20100101 Firefox/137.0" version="26.2.13">
  <diagram name="Page-1" id="F3Nnu7SSYmZYyEVeY52_">
    <mxGraphModel dx="916" dy="522" grid="1" gridSize="10" guides="1" tooltips="1" connect="1" arrows="1" fold="1" page="1" pageScale="1" pageWidth="827" pageHeight="1169" math="0" shadow="0">
      <root>
        <mxCell id="0" />
        <mxCell id="1" parent="0" />
        <mxCell id="gi2qa3_oIp6KL5NFgaNw-5" style="edgeStyle=orthogonalEdgeStyle;rounded=0;orthogonalLoop=1;jettySize=auto;html=1;exitX=0.5;exitY=0.5;exitDx=0;exitDy=15;exitPerimeter=0;entryX=0.5;entryY=0;entryDx=0;entryDy=0;" parent="1" source="gi2qa3_oIp6KL5NFgaNw-1" target="gi2qa3_oIp6KL5NFgaNw-3" edge="1">
          <mxGeometry relative="1" as="geometry" />
        </mxCell>
        <mxCell id="gi2qa3_oIp6KL5NFgaNw-1" value="Inicio" style="html=1;dashed=0;whiteSpace=wrap;shape=mxgraph.dfd.start" parent="1" vertex="1">
          <mxGeometry x="255" width="80" height="30" as="geometry" />
        </mxCell>
        <mxCell id="gi2qa3_oIp6KL5NFgaNw-6" style="edgeStyle=orthogonalEdgeStyle;rounded=0;orthogonalLoop=1;jettySize=auto;html=1;exitX=0.5;exitY=1;exitDx=0;exitDy=0;" parent="1" source="gi2qa3_oIp6KL5NFgaNw-3" target="gi2qa3_oIp6KL5NFgaNw-4" edge="1">
          <mxGeometry relative="1" as="geometry" />
        </mxCell>
        <mxCell id="gi2qa3_oIp6KL5NFgaNw-3" value="Mostrar Menu" style="html=1;dashed=0;whiteSpace=wrap;" parent="1" vertex="1">
          <mxGeometry x="245" y="70" width="100" height="50" as="geometry" />
        </mxCell>
        <mxCell id="gi2qa3_oIp6KL5NFgaNw-9" style="edgeStyle=orthogonalEdgeStyle;rounded=0;orthogonalLoop=1;jettySize=auto;html=1;exitX=0.5;exitY=1;exitDx=0;exitDy=0;entryX=0.5;entryY=0;entryDx=0;entryDy=0;" parent="1" source="gi2qa3_oIp6KL5NFgaNw-4" target="gi2qa3_oIp6KL5NFgaNw-8" edge="1">
          <mxGeometry relative="1" as="geometry" />
        </mxCell>
        <mxCell id="gi2qa3_oIp6KL5NFgaNw-4" value="Ler 1º PRODUCT_CODE na memória" style="html=1;dashed=0;whiteSpace=wrap;" parent="1" vertex="1">
          <mxGeometry x="222.5" y="160" width="145" height="50" as="geometry" />
        </mxCell>
        <mxCell id="gi2qa3_oIp6KL5NFgaNw-11" style="edgeStyle=orthogonalEdgeStyle;rounded=0;orthogonalLoop=1;jettySize=auto;html=1;exitX=0.5;exitY=1;exitDx=0;exitDy=0;entryX=0.5;entryY=0;entryDx=0;entryDy=0;" parent="1" source="gi2qa3_oIp6KL5NFgaNw-8" target="gi2qa3_oIp6KL5NFgaNw-10" edge="1">
          <mxGeometry relative="1" as="geometry" />
        </mxCell>
        <mxCell id="gi2qa3_oIp6KL5NFgaNw-8" value="Encontrar nome na tabela" style="html=1;dashed=0;whiteSpace=wrap;" parent="1" vertex="1">
          <mxGeometry x="245" y="250" width="100" height="50" as="geometry" />
        </mxCell>
        <mxCell id="gi2qa3_oIp6KL5NFgaNw-13" style="edgeStyle=orthogonalEdgeStyle;rounded=0;orthogonalLoop=1;jettySize=auto;html=1;exitX=0.5;exitY=1;exitDx=0;exitDy=0;" parent="1" source="gi2qa3_oIp6KL5NFgaNw-10" target="gi2qa3_oIp6KL5NFgaNw-12" edge="1">
          <mxGeometry relative="1" as="geometry" />
        </mxCell>
        <mxCell id="gi2qa3_oIp6KL5NFgaNw-10" value="Escrever nome no display" style="html=1;dashed=0;whiteSpace=wrap;" parent="1" vertex="1">
          <mxGeometry x="245" y="340" width="100" height="50" as="geometry" />
        </mxCell>
        <mxCell id="gi2qa3_oIp6KL5NFgaNw-15" style="edgeStyle=orthogonalEdgeStyle;rounded=0;orthogonalLoop=1;jettySize=auto;html=1;exitX=0.5;exitY=1;exitDx=0;exitDy=0;entryX=0.5;entryY=0;entryDx=0;entryDy=0;" parent="1" source="gi2qa3_oIp6KL5NFgaNw-12" target="gi2qa3_oIp6KL5NFgaNw-14" edge="1">
          <mxGeometry relative="1" as="geometry" />
        </mxCell>
        <mxCell id="gi2qa3_oIp6KL5NFgaNw-12" value="Ler e escrever peso" style="html=1;dashed=0;whiteSpace=wrap;" parent="1" vertex="1">
          <mxGeometry x="245" y="430" width="100" height="50" as="geometry" />
        </mxCell>
        <mxCell id="gi2qa3_oIp6KL5NFgaNw-17" style="edgeStyle=orthogonalEdgeStyle;rounded=0;orthogonalLoop=1;jettySize=auto;html=1;exitX=0.5;exitY=1;exitDx=0;exitDy=0;" parent="1" source="gi2qa3_oIp6KL5NFgaNw-14" target="gi2qa3_oIp6KL5NFgaNw-16" edge="1">
          <mxGeometry relative="1" as="geometry" />
        </mxCell>
        <mxCell id="gi2qa3_oIp6KL5NFgaNw-14" value="Ler e escrever preço" style="html=1;dashed=0;whiteSpace=wrap;" parent="1" vertex="1">
          <mxGeometry x="245" y="520" width="100" height="50" as="geometry" />
        </mxCell>
        <mxCell id="gi2qa3_oIp6KL5NFgaNw-23" style="edgeStyle=orthogonalEdgeStyle;rounded=0;orthogonalLoop=1;jettySize=auto;html=1;exitX=1;exitY=0.5;exitDx=0;exitDy=0;entryX=0;entryY=0.5;entryDx=0;entryDy=0;" parent="1" source="gi2qa3_oIp6KL5NFgaNw-16" target="gi2qa3_oIp6KL5NFgaNw-22" edge="1">
          <mxGeometry relative="1" as="geometry" />
        </mxCell>
        <mxCell id="gi2qa3_oIp6KL5NFgaNw-16" value="cancel = 0?" style="shape=rhombus;html=1;dashed=0;whiteSpace=wrap;perimeter=rhombusPerimeter;" parent="1" vertex="1">
          <mxGeometry x="240" y="610" width="110" height="70" as="geometry" />
        </mxCell>
        <mxCell id="gi2qa3_oIp6KL5NFgaNw-19" value="Fim" style="html=1;dashed=0;whiteSpace=wrap;shape=mxgraph.dfd.start" parent="1" vertex="1">
          <mxGeometry x="255" y="720" width="80" height="30" as="geometry" />
        </mxCell>
        <mxCell id="gi2qa3_oIp6KL5NFgaNw-20" style="edgeStyle=orthogonalEdgeStyle;rounded=0;orthogonalLoop=1;jettySize=auto;html=1;exitX=0.5;exitY=1;exitDx=0;exitDy=0;entryX=0.5;entryY=0.5;entryDx=0;entryDy=-15;entryPerimeter=0;" parent="1" source="gi2qa3_oIp6KL5NFgaNw-16" target="gi2qa3_oIp6KL5NFgaNw-19" edge="1">
          <mxGeometry relative="1" as="geometry" />
        </mxCell>
        <mxCell id="gi2qa3_oIp6KL5NFgaNw-27" style="edgeStyle=orthogonalEdgeStyle;rounded=0;orthogonalLoop=1;jettySize=auto;html=1;exitX=0.5;exitY=0;exitDx=0;exitDy=0;" parent="1" source="gi2qa3_oIp6KL5NFgaNw-22" edge="1">
          <mxGeometry relative="1" as="geometry">
            <mxPoint x="295" y="590" as="targetPoint" />
            <Array as="points">
              <mxPoint x="445" y="590" />
            </Array>
          </mxGeometry>
        </mxCell>
        <mxCell id="gi2qa3_oIp6KL5NFgaNw-30" style="edgeStyle=orthogonalEdgeStyle;rounded=0;orthogonalLoop=1;jettySize=auto;html=1;exitX=1;exitY=0.5;exitDx=0;exitDy=0;entryX=0;entryY=0.5;entryDx=0;entryDy=0;" parent="1" source="gi2qa3_oIp6KL5NFgaNw-22" target="gi2qa3_oIp6KL5NFgaNw-29" edge="1">
          <mxGeometry relative="1" as="geometry" />
        </mxCell>
        <mxCell id="gi2qa3_oIp6KL5NFgaNw-22" value="change != 0?" style="shape=rhombus;html=1;dashed=0;whiteSpace=wrap;perimeter=rhombusPerimeter;" parent="1" vertex="1">
          <mxGeometry x="390" y="610" width="110" height="70" as="geometry" />
        </mxCell>
        <mxCell id="gi2qa3_oIp6KL5NFgaNw-24" value="Não" style="text;html=1;align=center;verticalAlign=middle;resizable=0;points=[];autosize=1;strokeColor=none;fillColor=none;" parent="1" vertex="1">
          <mxGeometry x="331" y="618" width="50" height="30" as="geometry" />
        </mxCell>
        <mxCell id="gi2qa3_oIp6KL5NFgaNw-28" value="Não" style="text;html=1;align=center;verticalAlign=middle;resizable=0;points=[];autosize=1;strokeColor=none;fillColor=none;" parent="1" vertex="1">
          <mxGeometry x="440" y="585" width="50" height="30" as="geometry" />
        </mxCell>
        <mxCell id="gi2qa3_oIp6KL5NFgaNw-31" style="edgeStyle=orthogonalEdgeStyle;rounded=0;orthogonalLoop=1;jettySize=auto;html=1;exitX=1;exitY=0.5;exitDx=0;exitDy=0;" parent="1" source="gi2qa3_oIp6KL5NFgaNw-29" edge="1">
          <mxGeometry relative="1" as="geometry">
            <mxPoint x="295" y="50" as="targetPoint" />
            <Array as="points">
              <mxPoint x="690" y="645" />
              <mxPoint x="690" y="50" />
            </Array>
          </mxGeometry>
        </mxCell>
        <mxCell id="gi2qa3_oIp6KL5NFgaNw-34" style="edgeStyle=orthogonalEdgeStyle;rounded=0;orthogonalLoop=1;jettySize=auto;html=1;exitX=0.5;exitY=0;exitDx=0;exitDy=0;entryX=0.5;entryY=1;entryDx=0;entryDy=0;" parent="1" source="gi2qa3_oIp6KL5NFgaNw-29" target="gi2qa3_oIp6KL5NFgaNw-33" edge="1">
          <mxGeometry relative="1" as="geometry" />
        </mxCell>
        <mxCell id="gi2qa3_oIp6KL5NFgaNw-29" value="mais produtos na memória?" style="shape=rhombus;html=1;dashed=0;whiteSpace=wrap;perimeter=rhombusPerimeter;" parent="1" vertex="1">
          <mxGeometry x="540" y="610" width="110" height="70" as="geometry" />
        </mxCell>
        <mxCell id="gi2qa3_oIp6KL5NFgaNw-32" value="Não" style="text;html=1;align=center;verticalAlign=middle;resizable=0;points=[];autosize=1;strokeColor=none;fillColor=none;" parent="1" vertex="1">
          <mxGeometry x="640" y="638" width="50" height="30" as="geometry" />
        </mxCell>
        <mxCell id="gi2qa3_oIp6KL5NFgaNw-35" style="edgeStyle=orthogonalEdgeStyle;rounded=0;orthogonalLoop=1;jettySize=auto;html=1;exitX=0.5;exitY=0;exitDx=0;exitDy=0;entryX=1;entryY=0.5;entryDx=0;entryDy=0;" parent="1" source="gi2qa3_oIp6KL5NFgaNw-33" target="gi2qa3_oIp6KL5NFgaNw-8" edge="1">
          <mxGeometry relative="1" as="geometry" />
        </mxCell>
        <mxCell id="gi2qa3_oIp6KL5NFgaNw-33" value="Ler próximo PRODUCT_CODE na memória" style="html=1;dashed=0;whiteSpace=wrap;" parent="1" vertex="1">
          <mxGeometry x="530" y="520" width="130" height="50" as="geometry" />
        </mxCell>
        <mxCell id="gi2qa3_oIp6KL5NFgaNw-36" value="Sim" style="text;html=1;align=center;verticalAlign=middle;resizable=0;points=[];autosize=1;strokeColor=none;fillColor=none;" parent="1" vertex="1">
          <mxGeometry x="291" y="668" width="40" height="30" as="geometry" />
        </mxCell>
        <mxCell id="gi2qa3_oIp6KL5NFgaNw-37" value="Sim" style="text;html=1;align=center;verticalAlign=middle;resizable=0;points=[];autosize=1;strokeColor=none;fillColor=none;" parent="1" vertex="1">
          <mxGeometry x="490" y="638" width="40" height="30" as="geometry" />
        </mxCell>
        <mxCell id="gi2qa3_oIp6KL5NFgaNw-38" value="Sim" style="text;html=1;align=center;verticalAlign=middle;resizable=0;points=[];autosize=1;strokeColor=none;fillColor=none;" parent="1" vertex="1">
          <mxGeometry x="560" y="585" width="40" height="30" as="geometry" />
        </mxCell>
      </root>
    </mxGraphModel>
  </diagram>
</mxfile>
